# xmcd
#
# Track frame offsets: 
#        150
#        14063
#        28729
#        43263
#        68191
#        84610
#        99005
#        122069
#
# Disc length: 1835 seconds
#
# Revision: 0
# Processed by: cddbd v1.5.2PL0 Copyright (c) Steve Scherf et al.
# Submitted via: ExactAudioCopy v0.99pb4
#
DISCID=66072908
DTITLE=Ray Stevens - The Last Laugh
DYEAR=1999
DGENRE=Country
TTITLE0=Unwind
TTITLE1=The Streak
TTITLE2=Gitarzan
TTITLE3=Shriner's Convention
TTITLE4=Mr. Businessman
TTITLE5=America, Communicate With Me
TTITLE6=Moonlight Special
TTITLE7=Everything Is Beautiful
EXTD=
EXTT0=
EXTT1=
EXTT2=
EXTT3=
EXTT4=
EXTT5=
EXTT6=
EXTT7=
PLAYORDER=
